<?xml version="1.0" encoding="utf-8" ?><svg xmlns="http://www.w3.org/2000/svg" xmlns:xlink="http://www.w3.org/1999/xlink" width="2176" height="913" viewBox="0 0 2176 913"><path fill="#FDFDFC" d="M537.688 267.134C556.665 266.158 578.63 267.284 597.96 266.838C613.444 267.087 629.089 266.179 644.525 267.44C651.011 267.969 656.837 274.381 656.94 280.756C657.496 315.494 658.592 350.735 656.971 385.395C656.745 390.22 650.87 393.49 647.293 395.893C638.805 397.078 620.669 396.632 611.311 396.629C587.716 396.449 564.119 396.541 540.525 396.905C534.063 401.227 531.098 404.592 526.947 410.885C526.17 444.42 527.425 478.63 526.683 512.115C526.204 533.729 494.686 528.683 479.332 528.634L410.192 528.459C393.034 539.64 396.076 548.515 396.151 567.222L396.426 617.35C396.539 634.893 401.465 659.615 377.248 659.522C345.066 659.398 312.717 660.124 280.559 659.354C273.153 659.177 266.858 653.047 266.319 645.667C265.834 610.874 267.036 575.921 266.003 541.096C262.576 535.327 259.867 532.921 254.22 529.445C248.946 528.134 236.316 528.45 230.464 528.474L178.76 528.756C161.695 528.86 133.394 533.816 136.145 508.061C137.719 493.318 132.758 409.774 139.667 402.767C155.009 395.032 193.036 399.515 210.959 398.356C224.445 397.484 242.089 398.582 255.799 399.114C260.035 399.279 263.404 404.689 265.578 407.914C266.456 442.435 265.643 481.127 265.689 516.084C270.42 522.77 273.252 525.281 280.087 529.27C311.416 529.923 351.94 530.251 383.026 529.188C388.686 525.525 392.128 521.959 396.469 516.946C397.425 481.308 395.081 441.461 396.875 406.633C399.558 403.576 402.184 401.59 405.315 399.068C417.359 398.065 432.409 398.438 444.736 398.438C467.74 398.572 490.744 398.482 513.746 398.168C518.376 394.716 522.6 390.447 526.785 386.442C528.086 361.522 526.223 332.844 526.853 307.57C527.093 297.97 526.102 286.446 527.628 277.042C528.336 272.68 534.102 269.374 537.688 267.134Z"/><path fill="#FDFDFC" d="M1279.51 298.344C1345.04 297.269 1412.8 298.145 1478.5 298.142L1478.74 333.976L1511.59 334.18L1512.05 627.684L1446.61 627.598C1447.51 592.901 1446.91 555.647 1446.99 520.75L1446.93 493.799L1310.39 493.805C1311.16 537.921 1310.33 583.03 1310.8 627.341C1292.11 628.324 1265.63 627.51 1246.53 627.374L1246.5 334.605L1279.33 334.564L1279.51 298.344ZM1310.27 431.763L1446.59 431.787C1448.25 412.589 1446.63 380.888 1447.05 360.158L1310.61 360.177C1309.78 383.177 1310.25 408.567 1310.27 431.763Z"/><path fill="#FDFDFC" d="M1976.98 298.199C1997.87 297.703 2020.64 298.148 2041.68 298.145L2041.89 372.112L2008.63 372.2L2009.04 408.64L1976 408.652L1976.06 444.608L1942.69 444.255L1942.81 480.782L1976.17 480.955L1976.17 516.987L2008.72 517.006C2008.52 525.026 2007.63 545.146 2008.98 551.855C2011.16 553.401 2014.96 552.983 2017.85 552.975L2041.88 552.997C2041.64 577.711 2041.64 602.428 2041.89 627.142C2020.58 627.457 1998.39 627.12 1977.01 627.103L1977.02 566.413L1943.14 566.379C1943.82 555.487 1943.53 541.272 1943.59 530.122L1910.52 530.159C1910.85 518.294 1910.64 505.449 1910.67 493.507L1876.26 493.398C1877.74 534.878 1876.41 584.837 1876.75 627.284L1811.89 627.271L1811.7 298.281C1832.86 297.823 1855.39 298.17 1876.66 298.136C1876.35 342.682 1876.34 387.229 1876.63 431.775L1910.7 431.798C1910.81 419.909 1910.78 408.02 1910.62 396.131L1943.93 396.41L1943.59 358.246L1977.1 358.241L1976.98 298.199Z"/><path fill="#FDFDFC" d="M1146.66 298.226C1168.27 297.96 1190.34 298.207 1211.98 298.249L1212.03 408.501L1179.2 408.682L1179.29 444.576L1146.5 444.563L1146.76 480.792L1179.17 480.994L1179.29 516.971L1211.9 517.042C1211.4 551.837 1213.34 591.832 1211.71 625.917C1210 627.832 1210.34 627.27 1207.24 627.533L1146.88 627.343L1146.81 529.935L1113.57 529.942C1113.9 518.305 1113.7 505.601 1113.73 493.882L1080.1 493.956C1080.93 502.617 1080.46 520.169 1080.71 529.919L1046.96 529.932L1047.25 627.51C1025.74 627.188 1003.47 627.48 981.894 627.485C982.082 591.217 982.442 553.29 981.617 517.128L1015.09 517.21C1015.17 505.062 1015.1 492.913 1014.9 480.766L1047.88 480.798L1047.8 444.817L1015.06 444.748L1015.02 408.583L981.86 408.451L981.882 298.372C1003.49 298.196 1025.1 298.193 1046.72 298.363L1046.98 396.165L1080.16 396.285L1079.99 432.003L1113.94 431.96L1113.63 396.371L1147.1 396.242L1146.66 298.226Z"/><path fill="#FDFDFC" d="M1579.01 298.1L1743.78 298.145L1743.9 334.131C1754.51 334.451 1766.16 334.259 1776.86 334.294L1777.14 395.918L1711.46 395.825L1711.49 360.125L1611.05 360.129L1611.01 565.416L1710.86 565.481C1712.88 562.276 1711.45 534.741 1711.31 529.307L1776.86 529.343C1776.81 550.016 1776.93 570.688 1777.22 591.359L1743.86 591.276L1744.01 627.619L1578.89 627.561L1578.88 591.525C1568.66 591.13 1556.26 591.446 1545.88 591.442C1544.73 506.695 1545.94 419.334 1545.72 334.287L1578.92 334.406L1579.01 298.1Z"/><path fill="#FDFDFC" d="M428.619 683.254C444.232 681.921 477.972 682.581 492.884 683.855C509.964 685.314 502.302 747.029 502.664 759.724C502.759 763.06 495.914 766.735 493.508 768.016C474.438 770.252 449.708 768.703 430.424 767.715C420.245 767.193 419.579 753.605 419.691 745.813C419.948 727.937 418.852 709.535 420.748 691.764C421.171 687.8 426.05 684.856 428.619 683.254Z"/><path fill="#FDFDFC" d="M429.675 157.302C450.072 157.132 471.458 156.115 491.671 157.918C500.457 158.702 503.365 167.481 503.166 174.999C502.648 194.508 504.551 214.687 502.341 234.064C501.932 237.653 495.841 241.062 493.183 242.584C477.239 242.511 461.294 242.642 445.353 242.977C415.644 243.355 419.545 232.018 419.711 207.802C419.675 193.726 419.796 179.65 420.076 165.577C423.864 161.261 425.058 160.422 429.675 157.302Z"/><path fill="#FDFDFC" d="M300.499 289.346C319.637 288.896 339.178 288.992 358.303 289.374C363.703 289.481 372.271 293.75 372.5 299.694C373.311 320.806 373.592 342.424 372.643 363.529C372.342 370.223 365.987 373.328 360.249 374.202C346.724 373.946 304.104 377.168 294.48 371.49C292.512 370.329 291.456 366.77 290.929 364.673C288.769 356.085 287.565 300.486 291.306 294.54C293.447 291.136 296.793 290.195 300.499 289.346Z"/><path fill="#FDFDFC" d="M559.322 552.35C579.142 550.91 604.019 551.614 624.028 552.896C631.499 553.375 633.555 560.476 633.63 567.171C633.862 587.865 634.914 609.46 632.888 630.049C632.574 633.237 627.657 635.551 625.2 636.878C607.654 637.37 575.538 637.705 559.079 636.091C544.502 634.662 551.963 571.445 551.557 559.78C551.452 556.755 557.014 553.552 559.322 552.35Z"/><path fill="#FDFDFC" d="M690.763 421.215C710.725 420.227 733.476 420.747 753.525 421.574C762.345 421.938 764.509 431.194 764.447 438.79C764.288 458.145 765.153 478.044 763.804 497.355C763.542 501.093 758.22 503.984 755.466 505.658C744.302 505.95 689.616 508.236 683.938 501.474C677.813 487.656 681.541 444.553 681.964 427.948C682.04 424.972 688.418 422.226 690.763 421.215Z"/></svg>